<svg width="1200" height="324" viewBox="0 0 1200 324" fill="none" xmlns="http://www.w3.org/2000/svg">
<g clip-path="url(#clip0_3322_170541)">
<g clip-path="url(#clip1_3322_170541)">
<g clip-path="url(#clip2_3322_170541)">
<g clip-path="url(#clip3_3322_170541)">
<path d="M1.47656 322.865V1.45752H1198.93V322.865H1.47656Z" fill="black"/>
<path d="M12.5156 311.826V12.4966H1187.89V311.826H12.5156Z" fill="white"/>
<path d="M34.5977 289.748V34.5781H1165.81V289.748H34.5977Z" fill="black"/>
<g clip-path="url(#clip4_3322_170541)">
<g clip-path="url(#clip5_3322_170541)">
<g clip-path="url(#clip6_3322_170541)">
<path d="M156.15 79.3012C133.066 79.3012 114.916 86.6644 101.699 101.391C88.4817 116.081 81.8732 136.385 81.8732 162.303C81.8732 188.222 88.1135 208.489 100.594 223.105C113.038 237.537 130.857 244.753 154.051 244.753C169.404 244.753 183.596 242.784 196.629 238.844V250.165C184.627 254.473 169.459 256.627 151.125 256.627C125.427 256.627 105.141 248.306 90.2673 231.665C75.3567 215.061 67.9014 191.775 67.9014 161.806C67.7174 143.288 71.2149 126.868 78.3941 112.546C85.5364 98.2247 95.7897 87.1246 109.154 79.2459C122.518 71.3673 137.907 67.52 155.322 67.7041C173.362 67.7041 189.413 71.0543 203.477 77.7549L198.286 89.352C184.885 82.6514 170.84 79.3012 156.15 79.3012ZM357.719 70.3548H370.531V254.086H357.719V163.794H250.363V254.086H237.495V70.3548H250.363V151.921H357.719V70.3548ZM551.004 254.086H536.646L511.132 189.308H436.414L410.9 254.086H396.652L470.487 69.6921H478.715L551.004 254.086ZM466.842 111.718L441.163 177.711H506.769L481.808 111.552C479.746 106.545 477.224 99.3292 474.242 89.9042C472.107 97.4516 469.64 104.723 466.842 111.718ZM589.827 70.3548V254.086H576.959V70.3548H589.827ZM700.22 174.121H654.605V254.086H641.738V70.3548H685.42C708.136 70.3548 724.961 74.5519 735.895 82.946C746.83 91.3033 752.297 104.005 752.297 121.051C752.297 133.531 749.02 143.969 742.467 152.363C735.914 160.794 726.12 166.832 713.087 170.477L762.9 254.086H747.547L700.22 174.121ZM685.034 81.9519H654.605V163.077H689.617C705.338 163.077 717.413 159.579 725.844 152.584C734.275 145.626 738.491 135.299 738.491 121.603C738.491 107.944 734.294 97.9118 725.9 91.5057C717.542 85.1365 703.92 81.9519 685.034 81.9519ZM807.411 70.3548V254.086H794.599V70.3548H807.411ZM960.824 206.759C960.824 221.927 955.173 234.021 943.87 243.041C932.567 252.098 917.602 256.627 898.973 256.627C876.662 256.627 859.45 254.16 847.338 249.226V236.359C860.555 241.955 877.454 244.753 898.034 244.753C913.018 244.753 924.928 241.311 933.764 234.426C942.6 227.542 947.018 218.467 947.018 207.201C947.018 200.39 945.564 194.702 942.655 190.136C939.783 185.571 934.979 181.356 928.242 177.49C921.504 173.661 911.84 169.593 899.249 165.285C880.472 158.769 867.495 151.756 860.316 144.245C853.136 136.698 849.547 126.408 849.547 113.375C849.547 100.342 854.904 89.4809 865.617 80.7922C876.331 72.0668 890.247 67.7041 907.367 67.7041C924.486 67.7041 940.63 71.0175 955.798 77.6444L951.215 88.6893C936.047 82.2465 921.596 79.025 907.864 79.025C894.131 79.025 883.16 82.1912 874.95 88.5236C866.961 94.856 862.966 103.379 862.966 114.093C862.966 120.867 864.218 126.463 866.722 130.881C869.262 135.299 873.238 139.22 878.65 142.643C884.099 146.031 893.818 150.191 907.809 155.124C921.836 159.873 932.531 164.641 939.894 169.427C947.257 174.213 952.577 179.533 955.854 185.387C959.167 191.278 960.824 198.402 960.824 206.759ZM1119.65 70.3548H1132.52V254.086H1119.65V163.794H1012.35V254.086H999.481V70.3548H1012.35V151.921H1119.65V70.3548Z" fill="white"/>
</g>
</g>
</g>
</g>
</g>
</g>
</g>
<defs>
<clipPath id="clip0_3322_170541">
<rect width="1200" height="324" fill="white"/>
</clipPath>
<clipPath id="clip1_3322_170541">
<rect width="1197.46" height="321.41" fill="white" transform="translate(1.47656 1.45752)"/>
</clipPath>
<clipPath id="clip2_3322_170541">
<rect width="1197.46" height="321.41" fill="white" transform="translate(1.47656 1.45752)"/>
</clipPath>
<clipPath id="clip3_3322_170541">
<rect width="1197.46" height="321.41" fill="white" transform="translate(1.47656 1.45752)"/>
</clipPath>
<clipPath id="clip4_3322_170541">
<rect width="1064.97" height="188.929" fill="white" transform="translate(67.7168 67.6978)"/>
</clipPath>
<clipPath id="clip5_3322_170541">
<rect width="1064.97" height="188.929" fill="white" transform="translate(67.7168 67.6978)"/>
</clipPath>
<clipPath id="clip6_3322_170541">
<rect width="1064.97" height="188.929" fill="white" transform="translate(67.7168 67.6978)"/>
</clipPath>
</defs>
</svg>
