<svg xmlns="http://www.w3.org/2000/svg" version="1.1" xmlns:xlink="http://www.w3.org/1999/xlink" xmlns:svgjs="http://svgjs.dev/svgjs" width="1000" height="224" viewBox="0 0 1000 224"><g transform="matrix(1,0,0,1,-0.6060570827281708,-0.3007304249570524)"><svg viewBox="0 0 396 89" data-background-color="#ffffff" preserveAspectRatio="xMidYMid meet" height="224" width="1000" xmlns="http://www.w3.org/2000/svg" xmlns:xlink="http://www.w3.org/1999/xlink"><g id="tight-bounds" transform="matrix(1,0,0,1,0.23999860476035906,0.1194866420588312)"><svg viewBox="0 0 395.5199999999999 88.76102335928809" height="88.76102335928809" width="395.5199999999999"><g><svg viewBox="0 0 395.5199999999999 88.76102335928809" height="88.76102335928809" width="395.5199999999999"><g><svg viewBox="0 0 395.5199999999999 88.76102335928809" height="88.76102335928809" width="395.5199999999999"><g id="textblocktransform"><svg viewBox="0 0 395.5199999999999 88.76102335928809" height="88.76102335928809" width="395.5199999999999" id="textblock"><g><svg viewBox="0 0 395.5199999999999 88.76102335928809" height="88.76102335928809" width="395.5199999999999"><g transform="matrix(1,0,0,1,0,0)"><svg width="395.5199999999999" viewBox="2.299999952316284 -36 179.77999877929688 40.349998474121094" height="88.76102335928809" data-palette-color="#000000"><path d="M2.3 4.35L2.3 4.35Q2.9 1.95 3.8-1 4.7-3.95 5.98-8.03 7.25-12.1 8.95-17.7 10.65-23.3 12.9-30.95L12.9-30.95Q13-31.2 13.13-31.83 13.25-32.45 13.25-33L13.25-33Q13.25-33.5 13.08-33.83 12.9-34.15 12.5-34.15L12.5-34.15Q11.3-34.15 10.23-33.23 9.15-32.3 8.38-30.9 7.6-29.5 7.15-27.98 6.7-26.45 6.7-25.25L6.7-25.25Q6.7-24.25 6.95-23.5L6.95-23.5Q5.3-23.5 4.63-24.33 3.95-25.15 3.95-26.35L3.95-26.35Q3.95-28.05 4.95-29.75 5.95-31.45 7.5-32.88 9.05-34.3 10.78-35.15 12.5-36 13.95-36L13.95-36Q15.45-36 16.43-34.73 17.4-33.45 18-31.23 18.6-29 19-26.2 19.4-23.4 19.75-20.4L19.75-20.4Q20.05-17.9 20.35-15.43 20.65-12.95 20.95-10.73 21.25-8.5 21.5-6.65 21.75-4.8 21.95-3.6L21.95-3.6Q22.3-5.95 22.98-8.93 23.65-11.9 24.48-15.13 25.3-18.35 26.2-21.43 27.1-24.5 27.88-27.08 28.65-29.65 29.23-31.38 29.8-33.1 30-33.55L30-33.55Q30.25-34.2 31.15-35.1 32.05-36 33.15-36L33.15-36Q32.3-33.7 31.23-30.38 30.15-27.05 29.05-23.18 27.95-19.3 26.9-15.28 25.85-11.25 25.03-7.5 24.2-3.75 23.73-0.68 23.25 2.4 23.2 4.35L23.2 4.35Q21.65 4.35 20.68 3.45 19.7 2.55 19.3 0.3L19.3 0.3Q19.05-1 18.68-3.28 18.3-5.55 17.88-8.35 17.45-11.15 17-14.18 16.55-17.2 16.13-20.1 15.7-23 15.35-25.43 15-27.85 14.75-29.45L14.75-29.45Q12.35-20.8 10.65-14.83 8.95-8.85 7.78-5.08 6.6-1.3 5.7 0.75 4.8 2.8 4 3.58 3.2 4.35 2.3 4.35ZM36.15 2.2L36.15 2.2Q33.1 2.2 31.57 0.53 30.05-1.15 30.05-3.6L30.05-3.6Q30.05-5.85 31.17-8.35 32.3-10.85 34.17-13.05 36.05-15.25 38.3-16.63 40.55-18 42.75-18L42.75-18Q43.9-18 44.87-17.4 45.85-16.8 45.85-14.95L45.85-14.95Q45.85-13.05 44.72-11.38 43.6-9.7 41.77-8.4 39.95-7.1 37.77-6.28 35.6-5.45 33.45-5.25L33.45-5.25Q33.35-4.75 33.3-4.3 33.25-3.85 33.25-3.45L33.25-3.45Q33.25-2.7 33.42-1.95 33.6-1.2 34.05-0.58 34.5 0.05 35.27 0.4 36.05 0.75 37.2 0.75L37.2 0.75Q39.35 0.75 41.45-0.48 43.55-1.7 45.35-3.7 47.15-5.7 48.4-8.1L48.4-8.1 49-7.65Q47.65-4.65 45.57-2.45 43.5-0.25 41.07 0.98 38.65 2.2 36.15 2.2ZM33.7-6.2L33.7-6.2Q35.05-6.65 36.75-7.53 38.45-8.4 40.02-9.6 41.6-10.8 42.62-12.25 43.65-13.7 43.65-15.3L43.65-15.3Q43.65-15.85 43.45-16.15 43.25-16.45 42.6-16.45L42.6-16.45Q41.4-16.45 40.05-15.53 38.7-14.6 37.45-13.1 36.2-11.6 35.2-9.8 34.2-8 33.7-6.2ZM61.5 1.95L61.5 1.95Q59.95 1.95 59.37 0.53 58.8-0.9 58.8-2.9L58.8-2.9Q58.8-3.9 58.9-5.08 59-6.25 59.15-7.4L59.15-7.4Q58.05-5.2 56.77-3.15 55.5-1.1 54.1 0.2 52.7 1.5 51.15 1.5L51.15 1.5Q49.5 1.5 48.45 0 47.4-1.5 47.4-3.55L47.4-3.55Q47.4-5 47.87-6.9 48.35-8.8 49.05-10.65 49.75-12.5 50.5-13.7 51.25-14.9 51.8-14.9L51.8-14.9Q52.05-14.9 52.85-14.63 53.65-14.35 53.65-13.9L53.65-13.9Q53.1-13.05 52.3-11.3 51.5-9.55 50.9-7.53 50.3-5.5 50.3-3.85L50.3-3.85Q50.3-3.45 50.4-2.63 50.5-1.8 50.87-1.15 51.25-0.5 52.05-0.5L52.05-0.5Q53.2-0.5 54.5-1.95 55.8-3.4 57.1-5.6 58.4-7.8 59.55-10.05L59.55-10.05Q59.95-12.1 60.22-13.05 60.5-14 60.8-14.28 61.1-14.55 61.55-14.55L61.55-14.55Q62.2-14.55 62.6-14.28 63-14 63-13.45L63-13.45Q63-13.35 62.97-13.2 62.95-13.05 62.9-12.9L62.9-12.9Q62.55-11.7 62.22-9.88 61.9-8.05 61.7-6.1 61.5-4.15 61.5-2.45L61.5-2.45Q61.5-1.3 61.75-0.65 62 0 62.6 0L62.6 0Q63.35 0 64.34-0.93 65.34-1.85 66.42-3.38 67.5-4.9 68.52-6.7 69.55-8.5 70.34-10.25L70.34-10.25Q70.34-12.85 70.72-14.23 71.09-15.6 71.67-16.1 72.25-16.6 72.84-16.6L72.84-16.6Q73.8-16.6 74.22-15.93 74.65-15.25 74.65-14.7L74.65-14.7Q74.65-14.35 74.5-13.98 74.34-13.6 74.09-13.15L74.09-13.15Q73.7-12.4 73.3-11.23 72.9-10.05 72.9-8L72.9-8Q72.9-7.2 73.05-6.3 73.2-5.4 73.7-4.8 74.2-4.2 75.25-4.2L75.25-4.2Q76.3-4.2 77.27-5.03 78.25-5.85 79.2-7.9L79.2-7.9 79.84-7.4Q78.75-4.9 77.42-4.05 76.09-3.2 74.9-3.2L74.9-3.2Q73.34-3.2 72.27-4.25 71.2-5.3 70.7-7.4L70.7-7.4Q69.45-5.1 67.9-2.95 66.34-0.8 64.7 0.58 63.05 1.95 61.5 1.95ZM111.09 4.35L111.09 4.35Q109.29 4.35 107.12 3.6 104.94 2.85 102.64 1.78 100.34 0.7 98.09-0.3L98.09-0.3Q96.84 1.1 95.49 1.88 94.14 2.65 92.54 2.65L92.54 2.65Q90.94 2.65 89.82 1.9 88.69 1.15 88.12 0.13 87.54-0.9 87.54-1.7L87.54-1.7Q87.54-2.6 88.37-3.25 89.19-3.9 91.19-3.9L91.19-3.9Q92.49-3.9 94.07-3.6 95.64-3.3 97.34-2.85L97.34-2.85Q98.54-4.95 99.57-7.75 100.59-10.55 101.59-13.7 102.59-16.85 103.59-20L103.59-20Q101.29-20.75 99.97-22.2 98.64-23.65 98.64-25.35L98.64-25.35Q98.64-26.25 99.02-27.15 99.39-28.05 100.09-28.68 100.79-29.3 101.74-29.3L101.74-29.3Q101.39-28.8 101.24-27.85 101.09-26.9 101.09-26.2L101.09-26.2Q101.09-24.3 101.89-23.03 102.69-21.75 103.94-21.05L103.94-21.05Q104.94-24.05 106.02-26.73 107.09-29.4 108.39-31.5 109.69-33.6 111.24-34.8 112.79-36 114.69-36L114.69-36Q115.69-36 116.82-35.55 117.94-35.1 118.74-34 119.54-32.9 119.54-30.9L119.54-30.9Q119.54-29.2 118.84-27.23 118.14-25.25 116.69-23.48 115.24-21.7 112.99-20.58 110.74-19.45 107.69-19.4L107.69-19.4Q107.64-19.4 107.47-19.4 107.29-19.4 106.74-19.4L106.74-19.4Q105.74-16.35 104.62-13.2 103.49-10.05 102.24-7.23 100.99-4.4 99.54-2.2L99.54-2.2Q101.84-1.5 104.19-0.78 106.54-0.05 108.74 0.43 110.94 0.9 112.79 0.9L112.79 0.9Q113.84 0.9 114.69 0.7 115.54 0.5 116.34 0.1L116.34 0.1Q115.54 2.4 114.22 3.38 112.89 4.35 111.09 4.35ZM92.34 1.2L92.34 1.2Q93.44 1.2 94.42 0.6 95.39 0 96.19-1.1L96.19-1.1Q94.64-1.75 93.17-2.18 91.69-2.6 90.49-2.6L90.49-2.6Q89.54-2.6 89.19-2.35 88.84-2.1 88.84-1.65L88.84-1.65Q88.84-0.8 89.82 0.2 90.79 1.2 92.34 1.2ZM107.04-20.35L107.04-20.35Q109.29-20.35 111.12-21.63 112.94-22.9 114.22-24.83 115.49-26.75 116.17-28.75 116.84-30.75 116.84-32.25L116.84-32.25Q116.84-33.7 116.29-34.23 115.74-34.75 115.04-34.75L115.04-34.75Q113.49-34.75 112.14-32.75 110.79-30.75 109.57-27.48 108.34-24.2 107.04-20.35ZM122.14 2.35L122.14 2.35Q120.59 2.35 119.51 1.33 118.44 0.3 118.44-1.8L118.44-1.8Q118.44-3.6 119.24-5.68 120.04-7.75 121.44-9.78 122.84-11.8 124.61-13.48 126.39-15.15 128.36-16.15 130.34-17.15 132.29-17.15L132.29-17.15Q134.24-17.15 135.54-16.13 136.84-15.1 136.84-13.4L136.84-13.4Q136.84-12.15 136.16-11.7 135.49-11.25 134.39-11.25L134.39-11.25Q134.49-11.65 134.56-12.13 134.64-12.6 134.64-13L134.64-13Q134.64-14.15 134.09-14.98 133.54-15.8 132.19-15.8L132.19-15.8Q130.79-15.8 129.34-14.83 127.89-13.85 126.54-12.23 125.19-10.6 124.14-8.7 123.09-6.8 122.49-4.95 121.89-3.1 121.89-1.65L121.89-1.65Q121.89 0.3 123.24 0.3L123.24 0.3Q124.39 0.3 125.74-0.78 127.09-1.85 128.51-3.53 129.94-5.2 131.24-7 132.54-8.8 133.54-10.3L133.54-10.3Q133.74-10.6 133.79-10.6L133.79-10.6Q134.09-10.55 134.56-10.4 135.04-10.25 135.39-10 135.74-9.75 135.74-9.35L135.74-9.35Q135.74-8.9 135.29-8.13 134.84-7.35 134.29-6.35 133.74-5.35 133.29-4.33 132.84-3.3 132.84-2.4L132.84-2.4Q132.84-1.65 133.24-0.93 133.64-0.2 134.54-0.2L134.54-0.2Q135.89-0.2 138.09-2.18 140.29-4.15 142.54-8.1L142.54-8.1 143.04-7.6Q141.99-4.9 140.34-2.85 138.69-0.8 136.81 0.35 134.94 1.5 133.14 1.5L133.14 1.5Q131.29 1.5 130.41 0.4 129.54-0.7 129.54-2L129.54-2Q129.54-2.3 129.59-2.68 129.64-3.05 129.69-3.45L129.69-3.45Q127.54-0.55 125.76 0.9 123.99 2.35 122.14 2.35ZM156.39 1.9L156.39 1.9Q154.99 1.9 153.99 0.95 152.99 0 152.41-1.45 151.84-2.9 151.56-4.42 151.29-5.95 151.29-7.1L151.29-7.1Q151.84-7.1 152.89-7.38 153.94-7.65 155.04-8.22 156.14-8.8 156.91-9.73 157.69-10.65 157.69-11.9L157.69-11.9Q157.69-12.95 156.94-13.55 156.19-14.15 155.19-14.15L155.19-14.15Q153.64-14.15 152.29-13.08 150.94-12 149.86-10.28 148.79-8.55 147.94-6.6 147.09-4.65 146.49-2.9 145.89-1.15 145.49 0L145.49 0Q145.19 0.9 144.64 1.23 144.09 1.55 143.49 1.55L143.49 1.55Q142.64 1.55 142.26 0.85 141.89 0.15 141.81-0.93 141.74-2 141.74-3.15L141.74-3.15Q141.74-5.75 142.59-9.15 143.44-12.55 144.86-16.23 146.29-19.9 147.99-23.35 149.69-26.8 151.39-29.6 153.09-32.4 154.54-34.05 155.99-35.7 156.89-35.7L156.89-35.7Q157.59-35.7 158.01-34.75 158.44-33.8 158.44-32.45L158.44-32.45Q158.44-30.75 157.69-28.63 156.94-26.5 155.56-24.35 154.19-22.2 152.31-20.3 150.44-18.4 148.24-17.05L148.24-17.05Q146.59-13 145.76-9.18 144.94-5.35 144.94-2.75L144.94-2.75Q145.74-4.75 146.86-7.15 147.99-9.55 149.44-11.75 150.89-13.95 152.59-15.35 154.29-16.75 156.14-16.75L156.14-16.75Q157.99-16.75 159.29-15.45 160.59-14.15 160.59-12.3L160.59-12.3Q160.59-10.7 159.76-9.58 158.94-8.45 157.76-7.78 156.59-7.1 155.41-6.78 154.24-6.45 153.49-6.45L153.49-6.45Q153.54-6.05 153.79-5 154.04-3.95 154.51-2.8 154.99-1.65 155.69-0.83 156.39 0 157.39 0L157.39 0Q158.84 0 160.14-1.1 161.44-2.2 162.61-4.03 163.79-5.85 164.79-8.15L164.79-8.15 165.29-7.65Q164.59-5.2 163.14-3.03 161.69-0.85 159.91 0.53 158.14 1.9 156.39 1.9ZM149.09-19.05L149.09-19.05Q151.39-20.9 153.11-23.25 154.84-25.6 155.79-27.78 156.74-29.95 156.74-31.2L156.74-31.2Q156.74-31.45 156.71-31.55 156.69-31.65 156.59-31.65L156.59-31.65Q156.09-31.65 154.86-29.9 153.64-28.15 152.09-25.28 150.54-22.4 149.09-19.05ZM169.23 2.2L169.23 2.2Q166.18 2.2 164.66 0.53 163.13-1.15 163.13-3.6L163.13-3.6Q163.13-5.85 164.26-8.35 165.38-10.85 167.26-13.05 169.13-15.25 171.38-16.63 173.63-18 175.83-18L175.83-18Q176.98-18 177.96-17.4 178.93-16.8 178.93-14.95L178.93-14.95Q178.93-13.05 177.81-11.38 176.68-9.7 174.86-8.4 173.03-7.1 170.86-6.28 168.68-5.45 166.53-5.25L166.53-5.25Q166.43-4.75 166.38-4.3 166.33-3.85 166.33-3.45L166.33-3.45Q166.33-2.7 166.51-1.95 166.68-1.2 167.13-0.58 167.58 0.05 168.36 0.4 169.13 0.75 170.28 0.75L170.28 0.75Q172.43 0.75 174.53-0.48 176.63-1.7 178.43-3.7 180.23-5.7 181.48-8.1L181.48-8.1 182.08-7.65Q180.73-4.65 178.66-2.45 176.58-0.25 174.16 0.98 171.73 2.2 169.23 2.2ZM166.78-6.2L166.78-6.2Q168.13-6.65 169.83-7.53 171.53-8.4 173.11-9.6 174.68-10.8 175.71-12.25 176.73-13.7 176.73-15.3L176.73-15.3Q176.73-15.85 176.53-16.15 176.33-16.45 175.68-16.45L175.68-16.45Q174.48-16.45 173.13-15.53 171.78-14.6 170.53-13.1 169.28-11.6 168.28-9.8 167.28-8 166.78-6.2Z" opacity="1" transform="matrix(1,0,0,1,0,0)" fill="#000000" class="wordmark-text-0" data-fill-palette-color="primary" id="text-0"></path></svg></g></svg></g></svg></g></svg></g></svg></g><defs></defs></svg><rect width="395.5199999999999" height="88.76102335928809" fill="none" stroke="none" visibility="hidden"></rect></g></svg></g></svg>